<svg xmlns="http://www.w3.org/2000/svg" version="1.1" xmlns:xlink="http://www.w3.org/1999/xlink" xmlns:svgjs="http://svgjs.dev/svgjs" width="512" height="512"><svg xmlns="http://www.w3.org/2000/svg" viewBox="0 0 512 512" width="512" height="512">
  <rect width="512" height="512" style="fill:#059669;paint-order:stroke markers" rx="44.538" ry="44.538"></rect>
  <path d="M450.295 376.523c-20.357 0-39.279-9.179-51.918-25.184-3.117-3.948-7.8-6.212-12.847-6.212s-9.73 2.264-12.848 6.212c-12.639 16.005-31.56 25.184-51.917 25.184s-39.278-9.179-51.918-25.184c-3.117-3.948-7.8-6.212-12.848-6.212-5.047 0-9.73 2.264-12.848 6.212-12.638 16.005-31.561 25.184-51.917 25.184a7.93 7.93 0 1 0 0 15.86c25.24 0 48.7-11.376 64.365-31.214.039-.05.143-.18.4-.18s.362.131.4.18c15.664 19.838 39.124 31.214 64.365 31.214 25.24.001 48.7-11.376 64.363-31.213.04-.05.144-.182.4-.182s.362.132.4.181c15.666 19.838 39.126 31.214 64.366 31.214a7.93 7.93 0 0 0 7.93-7.93 7.93 7.93 0 0 0-7.928-7.93m-284.702.097c-10.205 0-10.223 15.86 0 15.86 10.205 0 10.222-15.86 0-15.86m284.704-71.2c-20.359 0-39.284-9.177-51.917-25.17-3.116-3.954-7.8-6.223-12.851-6.223s-9.735 2.267-12.845 6.214c-7.943 10.058-18.434 17.47-30.279 21.557l13.677-58.999a82.5 82.5 0 0 0 28.948-23.096.7.7 0 0 1 .559-.282c.216 0 .287.09.34.157 15.666 19.838 39.126 31.215 64.366 31.215a7.93 7.93 0 0 0 0-15.86c-20.356 0-39.279-9.18-51.919-25.184-3.1-3.928-7.755-6.184-12.77-6.189h-.017c-5.084 0-9.818 2.292-12.987 6.29a66 66 0 0 1-3.825 4.403l-6.77-8.856a6 6 0 0 0-.163-.22l-63.102-82.541a7.93 7.93 0 0 0-9.84-2.28l-92.951 46.368-.008.004-17.466 8.713a7.93 7.93 0 0 0 7.08 14.193l2.367-1.18-10.486 45.02c-14.932-3.204-28.559-11.616-38.124-23.732-3.113-3.943-7.794-6.206-12.837-6.206-5.05 0-9.734 2.264-12.854 6.213-12.638 16.004-31.56 25.183-51.916 25.183a7.93 7.93 0 1 0 0 15.86c25.24 0 48.699-11.376 64.364-31.213.04-.05.145-.182.405-.182.25 0 .348.122.389.174 11.79 14.933 28.569 25.331 46.974 29.353l-11.6 49.812a66.1 66.1 0 0 1-22.916-18.486c-3.116-3.954-7.8-6.222-12.85-6.222s-9.734 2.268-12.847 6.215c-12.639 16.001-31.564 25.179-51.924 25.179a7.93 7.93 0 0 0 .002 15.859c25.243 0 48.705-11.375 64.374-31.214.042-.053.14-.179.394-.179s.351.125.397.183c9.945 12.599 23.21 21.93 38.363 26.995l.07.025.048.016a81.9 81.9 0 0 0 25.882 4.173c11.996 0 23.562-2.539 34.378-7.54l.06-.027.084-.038c11.576-5.376 21.897-13.538 29.852-23.61.042-.052.14-.178.394-.178.252 0 .35.125.397.184a82.2 82.2 0 0 0 19.947 18.14c.088.056.178.108.266.164l.04.026c13.166 8.424 28.412 12.88 44.118 12.88 4.085 0 8.185-.305 12.174-.903l.095-.015.123-.02c20.556-3.112 39.006-13.855 51.976-30.276.042-.053.14-.178.393-.178s.35.125.398.185c15.665 19.833 39.128 31.208 64.37 31.208a7.93 7.93 0 0 0 0-15.862m-174.579-17.734a66.4 66.4 0 0 1-6.868-7.438c-3.115-3.953-7.799-6.221-12.85-6.221s-9.735 2.267-12.846 6.214a66.4 66.4 0 0 1-8.605 8.996l8.955-38.657 38.73 8.98zm49.604 17.572a65.9 65.9 0 0 1-35.633-7.592l9.787-42.25a7.93 7.93 0 0 0-5.934-9.515l-54.181-12.562a7.93 7.93 0 0 0-9.517 5.936l-14.25 61.512c-7.738 3.075-15.915 4.633-24.361 4.633a66.4 66.4 0 0 1-13.923-1.477l29.04-124.682 83.77-41.788 56.855 74.37z" style="fill:#fff"></path>
  <path d="M276.247 168.54c-14.4 0-26.116 11.715-26.116 26.115 0 14.405 11.715 26.123 26.116 26.123s26.115-11.72 26.115-26.123c0-14.4-11.715-26.115-26.115-26.115m0 36.377c-5.655 0-10.255-4.604-10.255-10.262 0-5.654 4.6-10.254 10.255-10.254S286.5 189 286.5 194.655c0 5.658-4.6 10.262-10.254 10.262" style="fill:#fff"></path>
</svg><style>@media (prefers-color-scheme: light) { :root { filter: none; } }
@media (prefers-color-scheme: dark) { :root { filter: none; } }
</style></svg>